<svg xmlns="http://www.w3.org/2000/svg" width="124" height="101" viewBox="0 0 124 101" fill="none"><path d="M13.952 100.577H110.048C118.518 89.951 123.6 76.63 123.6 62C123.6 28.043 96.034 0.400024 62 0.400024C27.966 0.400024 0.400002 28.043 0.400002 62C0.400002 76.63 5.482 89.951 13.952 100.577ZM54.3 15.8C54.3 11.565 57.765 8.10002 62 8.10002C66.235 8.10002 69.7 11.565 69.7 15.8C69.7 20.112 66.235 23.5 62 23.5C57.765 23.5 54.3 20.112 54.3 15.8ZM15.8 31.2C15.8 26.965 19.265 23.5 23.5 23.5C27.735 23.5 31.2 26.965 31.2 31.2C31.2 35.512 27.735 38.9 23.5 38.9C19.265 38.9 15.8 35.512 15.8 31.2ZM50.604 57.38C57.072 50.989 100.731 30.43 100.731 30.43C100.731 30.43 80.249 74.166 73.858 80.557C67.39 87.025 57.072 87.025 50.604 80.557C44.213 74.166 44.213 63.771 50.604 57.38ZM8.1 69.7C8.1 65.465 11.565 62 15.8 62C20.035 62 23.5 65.465 23.5 69.7C23.5 74.012 20.035 77.4 15.8 77.4C11.565 77.4 8.1 74.012 8.1 69.7ZM54.3 69.7C54.3 65.465 57.765 62 62 62C66.235 62 69.7 65.465 69.7 69.7C69.7 74.012 66.235 77.4 62 77.4C57.765 77.4 54.3 74.012 54.3 69.7ZM100.5 69.7C100.5 65.465 103.965 62 108.2 62C112.435 62 115.9 65.465 115.9 69.7C115.9 74.012 112.435 77.4 108.2 77.4C103.965 77.4 100.5 74.012 100.5 69.7Z" fill="black"></path><path d="M121.4 8.1001C121.4 8.1001 57.072 50.989 50.604 57.38C44.213 63.771 44.213 74.166 50.604 80.557C57.072 87.025 67.39 87.025 73.858 80.557C80.249 74.166 121.4 8.1001 121.4 8.1001Z" fill="#FFA421"></path><path d="M69.7 69.7C69.7 65.465 66.235 62 62 62C55.84 62 54.3 67.1333 54.3 69.7C54.3 74.012 57.765 77.4 62 77.4C66.235 77.4 69.7 74.012 69.7 69.7Z" fill="#4683AF"></path></svg>