<svg xmlns="http://www.w3.org/2000/svg" width="125" height="125" viewBox="0 0 125 125" fill="none"><g clip-path="url(#clip0_203_191)"><path d="M108.105 88.2813L79.9805 94.7266C79.7852 96.0938 79.1992 97.5586 78.3203 98.7305C76.6602 101.27 74.1211 103.125 71.1914 103.906C68.2617 104.59 65.1367 104.102 62.5977 102.344L38.3789 86.9141C37.207 86.2305 37.0117 84.8633 37.6953 83.7891C38.3789 82.7149 39.7461 82.4219 40.7227 83.1055L65.0391 98.5352C68.2617 100.488 72.4609 99.6094 74.5117 96.4844C76.5625 93.3594 75.5859 89.0625 72.4609 87.0118L42.1875 67.8711C37.207 64.7461 31.4453 62.3047 25.9766 65.0391L0.878906 79.2969L0.976561 107.031L18.8477 94.6289C21.6797 93.9453 24.8047 94.5313 27.4414 96.1914L48.5352 109.473C53.7109 112.695 60.0586 113.477 65.5273 112.012L111.23 101.563C114.844 100.781 117.285 97.168 116.406 93.2618C115.43 89.7461 111.816 87.5 108.105 88.2813Z" fill="black"></path><path fill-rule="evenodd" clip-rule="evenodd" d="M83.7887 4.44189C104.882 3.0747 123.047 19.0903 124.316 40.1841C127.907 58.1395 108.285 82.8489 85.2536 80.6686C58.6486 78.1501 47.428 55.6578 48.0465 44.9692C46.6793 23.8755 62.695 5.71142 83.7887 4.44189ZM58.8864 22.7036C58.983 23.5249 59.2469 24.2505 59.4889 24.9161C59.7362 25.5959 59.9606 26.213 59.9606 26.8052C59.9606 27.307 59.9559 27.7867 59.9514 28.2478C59.9149 32.0035 59.8903 34.5245 62.4997 37.7427C63.4745 38.88 63.9087 40.558 64.3083 42.102C64.389 42.414 64.4684 42.7206 64.5504 43.0161C65.0057 44.3061 66.2865 45.0654 67.5222 45.7981C67.8768 46.0083 68.2277 46.2163 68.5543 46.4341C69.6419 47.1466 70.715 47.9311 71.7959 48.7213C73.5296 49.9888 75.2833 51.2708 77.1481 52.2934L77.279 52.3654C79.1533 53.395 80.2665 54.0065 79.9801 56.2974C79.8787 56.7791 79.8036 57.2148 79.7326 57.6266C79.5303 58.8009 79.3613 59.7811 78.7106 61.0825C78.5153 61.6685 80.0778 64.7934 80.5661 65.1841C80.937 65.4855 81.3024 65.7868 81.6663 66.0869C82.8351 67.0509 83.9875 68.0013 85.2536 68.895C87.1391 70.2729 86.2242 72.1355 85.2284 74.1628C84.8832 74.8655 84.5284 75.5879 84.277 76.3169C76.8551 75.8286 69.7262 72.8989 63.9645 67.9185C57.2262 61.9614 53.2223 53.6606 52.6364 44.7739C52.0504 36.5708 54.0036 29.0513 58.8864 22.7036ZM79.6543 31.1511C78.2398 32.1998 76.8561 33.2257 77.6364 34.7153C77.6514 34.7416 77.6684 34.7711 77.6872 34.8038C78.1577 35.6212 79.7398 38.3698 78.6129 39.4028C77.6121 40.3127 75.933 38.2555 75.3134 37.4964C75.268 37.4407 75.2283 37.3921 75.195 37.352C73.9607 36.0451 71.8627 36.2497 69.9044 36.4407C69.2287 36.5065 68.5696 36.5708 67.9684 36.5708C68.0096 37.2501 68.003 37.9814 67.9963 38.7318C67.9711 41.5419 67.9435 44.6202 70.4098 46.2388C71.0716 46.6657 71.6446 47.0506 72.1719 47.4048C74.0568 48.6708 75.3562 49.5436 78.027 50.5356C79.2347 51.0001 81.3924 50.5367 83.5648 50.0701C85.9598 49.5557 88.3727 49.0375 89.5504 49.7544C89.7057 49.8545 89.8599 49.9542 90.0132 50.0533C92.8505 51.8865 95.3948 53.5304 98.7301 54.7349C100.293 55.2231 105.078 58.1528 103.906 60.2036C102.929 61.7661 102.148 63.1333 101.562 64.7935C100.976 66.356 99.4137 68.4067 98.1442 69.5786C96.6793 70.8481 95.1168 73.0942 94.3356 75.438C100.879 73.8755 106.64 70.2622 111.23 65.0864C115.332 60.3989 117.968 54.9302 119.14 48.9731C117.578 49.3638 115.625 48.7778 115.625 48.7778C115.625 48.7778 111.23 44.5786 110.644 40.5747C110.362 38.6024 110.51 36.5623 110.652 34.5957C110.805 32.4726 110.952 30.435 110.547 28.6606C110.107 27.0141 108.527 25.7685 106.95 24.5253C105.72 23.5564 104.493 22.5889 103.808 21.4341C102.933 20.011 101.413 18.4653 100.228 17.261C99.2998 16.3166 98.5777 15.5822 98.5348 15.2817C98.4371 14.4028 100.488 14.0122 100.879 14.2075C101.618 13.9609 102.427 13.8527 103.072 13.7664C103.194 13.7502 103.309 13.7347 103.418 13.7192C99.0231 10.9849 94.1403 9.42235 88.8668 8.93407L88.9645 10.5942L89.7457 12.4497C89.7457 12.4497 87.8903 14.8911 87.3043 14.9888C86.8161 14.9888 85.6442 14.5005 85.6442 14.5005L83.6911 12.645L81.7379 10.5942L79.1012 9.61766C76.1715 10.3013 73.3395 11.2778 70.7028 12.645C70.8004 12.938 70.8981 13.4263 70.8981 13.9145C71.3893 13.704 71.9058 13.5061 72.4248 13.3072C73.3503 12.9525 74.2839 12.5947 75.0973 12.1567C75.5435 11.9783 77.2127 13.1044 77.9444 13.598C78.0134 13.6446 78.0741 13.6855 78.1247 13.7192C77.9067 13.9995 77.4602 14.4189 76.9501 14.8981C75.8605 15.9215 74.4802 17.2179 74.4137 18.0161C74.367 18.2497 74.6555 18.5056 74.9692 18.7839C75.3112 19.0873 75.6833 19.4173 75.6833 19.7739C75.6833 20.2506 75.7298 20.6342 75.7774 21.0269C75.8274 21.4388 75.8786 21.8607 75.8786 22.4106C76.0659 22.2545 76.4729 21.8388 76.956 21.3454C77.9835 20.2959 79.355 18.895 79.6872 18.895C82.0309 18.0161 86.3278 21.8247 86.8161 23.1919C87.1823 24.1442 84.9109 26.3055 82.9285 28.1918C82.2682 28.82 81.64 29.4178 81.152 29.9302C80.7245 30.3577 80.1872 30.756 79.6543 31.1511Z" fill="#FFA421"></path><mask id="mask0_203_191" style="mask-type:alpha" maskUnits="userSpaceOnUse" x="49" y="-37" width="119" height="96"><rect x="71.3714" y="-37" width="102.266" height="63.2433" transform="rotate(20.716 71.3714 -37)" fill="#D9D9D9"></rect></mask><g mask="url(#mask0_203_191)"><path fill-rule="evenodd" clip-rule="evenodd" d="M83.7887 4.44189C104.882 3.0747 123.047 19.0903 124.316 40.1841C127.907 58.1395 108.285 82.8489 85.2536 80.6686C58.6486 78.1501 47.428 55.6578 48.0465 44.9692C46.6793 23.8755 62.695 5.71142 83.7887 4.44189ZM58.8864 22.7036C58.983 23.5249 59.2469 24.2505 59.4889 24.9161C59.7362 25.5959 59.9606 26.213 59.9606 26.8052C59.9606 27.307 59.9559 27.7867 59.9514 28.2478C59.9149 32.0035 59.8903 34.5245 62.4997 37.7427C63.4745 38.88 63.9087 40.558 64.3083 42.102C64.389 42.414 64.4684 42.7206 64.5504 43.0161C65.0057 44.3061 66.2865 45.0654 67.5222 45.7981C67.8768 46.0083 68.2277 46.2163 68.5543 46.4341C69.6419 47.1466 70.715 47.9311 71.7959 48.7213C73.5296 49.9888 75.2833 51.2708 77.1481 52.2934L77.279 52.3654C79.1533 53.395 80.2665 54.0065 79.9801 56.2974C79.8787 56.7791 79.8036 57.2148 79.7326 57.6266C79.5303 58.8009 79.3613 59.7811 78.7106 61.0825C78.5153 61.6685 80.0778 64.7934 80.5661 65.1841C80.937 65.4855 81.3024 65.7868 81.6663 66.0869C82.8351 67.0509 83.9875 68.0013 85.2536 68.895C87.1391 70.2729 86.2242 72.1355 85.2284 74.1628C84.8832 74.8655 84.5284 75.5879 84.277 76.3169C76.8551 75.8286 69.7262 72.8989 63.9645 67.9185C57.2262 61.9614 53.2223 53.6606 52.6364 44.7739C52.0504 36.5708 54.0036 29.0513 58.8864 22.7036ZM79.6543 31.1511C78.2398 32.1998 76.8561 33.2257 77.6364 34.7153C77.6514 34.7416 77.6684 34.7711 77.6872 34.8038C78.1577 35.6212 79.7398 38.3698 78.6129 39.4028C77.6121 40.3127 75.933 38.2555 75.3134 37.4964C75.268 37.4407 75.2283 37.3921 75.195 37.352C73.9607 36.0451 71.8627 36.2497 69.9044 36.4407C69.2287 36.5065 68.5696 36.5708 67.9684 36.5708C68.0096 37.2501 68.003 37.9814 67.9963 38.7318C67.9711 41.5419 67.9435 44.6202 70.4098 46.2388C71.0716 46.6657 71.6446 47.0506 72.1719 47.4048C74.0568 48.6708 75.3562 49.5436 78.027 50.5356C79.2347 51.0001 81.3924 50.5367 83.5648 50.0701C85.9598 49.5557 88.3727 49.0375 89.5504 49.7544C89.7057 49.8545 89.8599 49.9542 90.0132 50.0533C92.8505 51.8865 95.3948 53.5304 98.7301 54.7349C100.293 55.2231 105.078 58.1528 103.906 60.2036C102.929 61.7661 102.148 63.1333 101.562 64.7935C100.976 66.356 99.4137 68.4067 98.1442 69.5786C96.6793 70.8481 95.1168 73.0942 94.3356 75.438C100.879 73.8755 106.64 70.2622 111.23 65.0864C115.332 60.3989 117.968 54.9302 119.14 48.9731C117.578 49.3638 115.625 48.7778 115.625 48.7778C115.625 48.7778 111.23 44.5786 110.644 40.5747C110.362 38.6024 110.51 36.5623 110.652 34.5957C110.805 32.4726 110.952 30.435 110.547 28.6606C110.107 27.0141 108.527 25.7685 106.95 24.5253C105.72 23.5564 104.493 22.5889 103.808 21.4341C102.933 20.011 101.413 18.4653 100.228 17.261C99.2998 16.3166 98.5777 15.5822 98.5348 15.2817C98.4371 14.4028 100.488 14.0122 100.879 14.2075C101.618 13.9609 102.427 13.8527 103.072 13.7664C103.194 13.7502 103.309 13.7347 103.418 13.7192C99.0231 10.9849 94.1403 9.42235 88.8668 8.93407L88.9645 10.5942L89.7457 12.4497C89.7457 12.4497 87.8903 14.8911 87.3043 14.9888C86.8161 14.9888 85.6442 14.5005 85.6442 14.5005L83.6911 12.645L81.7379 10.5942L79.1012 9.61766C76.1715 10.3013 73.3395 11.2778 70.7028 12.645C70.8004 12.938 70.8981 13.4263 70.8981 13.9145C71.3893 13.704 71.9058 13.5061 72.4248 13.3072C73.3503 12.9525 74.2839 12.5947 75.0973 12.1567C75.5435 11.9783 77.2127 13.1044 77.9444 13.598C78.0134 13.6446 78.0741 13.6855 78.1247 13.7192C77.9067 13.9995 77.4602 14.4189 76.9501 14.8981C75.8605 15.9215 74.4802 17.2179 74.4137 18.0161C74.367 18.2497 74.6555 18.5056 74.9692 18.7839C75.3112 19.0873 75.6833 19.4173 75.6833 19.7739C75.6833 20.2506 75.7298 20.6342 75.7774 21.0269C75.8274 21.4388 75.8786 21.8607 75.8786 22.4106C76.0659 22.2545 76.4729 21.8388 76.956 21.3454C77.9835 20.2959 79.355 18.895 79.6872 18.895C82.0309 18.0161 86.3278 21.8247 86.8161 23.1919C87.1823 24.1442 84.9109 26.3055 82.9285 28.1918C82.2682 28.82 81.64 29.4178 81.152 29.9302C80.7245 30.3577 80.1872 30.756 79.6543 31.1511Z" fill="#4683AF"></path></g></g><defs><clipPath id="clip0_203_191"><rect width="125" height="125" fill="white"></rect></clipPath></defs></svg>