<svg xmlns="http://www.w3.org/2000/svg" width="120" height="120" viewBox="0 0 120 120" fill="none"><path fill-rule="evenodd" clip-rule="evenodd" d="M93.6656 117.05C98.4585 117.045 102.343 113.16 102.347 108.367C102.347 107.886 102.256 107.412 102.08 106.964L77.9599 45.8547V10.5841H80.8886C82.998 10.5841 84.7046 8.87468 84.7046 6.7666C84.7046 4.65851 82.998 2.9491 80.8886 2.9491H74.1452C72.0376 2.9491 70.3291 4.65757 70.3291 6.76519V6.7666V46.1983C70.3291 46.357 70.338 46.5138 70.3536 46.6491L70.3819 46.7613C70.3868 47.25 70.4843 47.7164 70.6485 48.1184L85.1606 84.8882L93.6656 108.367L26.3392 108.367L34.5123 84.8882L48.5588 48.0775C48.7266 47.6448 48.8386 47.018 48.8386 46.5524C48.8755 46.3353 48.8946 46.1183 48.8946 45.8984V6.7666C48.8946 4.65839 47.1853 2.9491 45.0771 2.9491H45.0757H38.5043C36.3948 2.9491 34.6882 4.65851 34.6882 6.7666C34.6882 8.87468 36.3948 10.5841 38.5043 10.5841H41.2595V45.6036C41.257 45.6231 41.2545 45.6427 41.2519 45.6623C41.2419 45.7388 41.2318 45.8159 41.2254 45.893L17.9055 107.007C17.7403 107.441 17.6543 107.903 17.6543 108.367C17.6597 113.161 21.545 117.046 26.3392 117.05H93.6656Z" fill="black"></path><path fill-rule="evenodd" clip-rule="evenodd" d="M59.4402 63.9772C59.4434 61.7815 61.2228 60.0023 63.4186 60C65.6139 60.0032 67.3923 61.7821 67.3948 63.9769C67.3916 66.172 65.6135 67.9505 63.4193 67.9543C61.2228 67.9527 59.4424 66.173 59.4402 63.9772ZM63.4187 66.0457C62.2772 66.0457 61.3488 65.1172 61.3488 63.9772C61.3488 62.8357 62.2772 61.9073 63.4187 61.9073C64.5573 61.9073 65.4886 62.8357 65.4886 63.9772C65.4886 65.1173 64.5573 66.0457 63.4187 66.0457Z" fill="#4683AF"></path><path fill-rule="evenodd" clip-rule="evenodd" d="M52.6053 76.3826C52.6546 74.8391 53.9175 73.6065 55.4685 73.6065C57.0194 73.6065 58.2825 74.839 58.3314 76.3781C58.3315 77.9596 57.0468 79.2457 55.4669 79.2457C53.8871 79.2457 52.6053 77.9596 52.6053 76.3826ZM54.5108 76.4166C54.5108 76.4046 54.5111 76.3927 54.5114 76.3826L54.5118 76.3809C54.5306 75.8695 54.951 75.4609 55.4668 75.4609C55.9812 75.4609 56.4008 75.8672 56.4217 76.3766C56.4221 76.3898 56.4224 76.4031 56.4224 76.4166C56.4224 76.9445 55.9945 77.3723 55.4666 77.3723C54.9387 77.3723 54.5108 76.9445 54.5108 76.4166Z" fill="#4683AF"></path><path fill-rule="evenodd" clip-rule="evenodd" d="M67.3946 73.5195V73.518C67.3946 71.936 68.677 70.6535 70.2592 70.6535C71.8412 70.6535 73.1237 71.9359 73.1237 73.518C73.1237 75.1001 71.8413 76.3826 70.2592 76.3826C68.6783 76.3809 67.3971 75.1001 67.3946 73.5195ZM69.3028 73.5534C69.3028 73.5415 69.303 73.5295 69.3034 73.5195L69.3037 73.5178C69.3226 73.0064 69.743 72.5978 70.2588 72.5978C70.7732 72.5978 71.1928 73.0041 71.2137 73.5135C71.2141 73.5267 71.2144 73.54 71.2144 73.5534C71.2144 74.0814 70.7865 74.5092 70.2586 74.5092C69.7307 74.5092 69.3028 74.0814 69.3028 73.5534Z" fill="#4683AF"></path><path d="M85.1606 84.8882H34.5123L26.3392 108.367L93.6656 108.367L85.1606 84.8882Z" fill="#FFA421"></path></svg>