<svg xmlns="http://www.w3.org/2000/svg" width="125" height="125" viewBox="0 0 125 125" fill="none"><path d="M51.736 79.681C59.395 75.334 66.64 73.264 74.713 73.264C76.99 73.264 79.267 73.471 81.337 73.678C82.372 73.885 82.579 73.471 81.544 72.85C77.611 70.573 73.264 68.503 68.71 66.64C59.809 62.914 58.567 59.602 58.567 55.876C58.567 52.15 61.051 48.838 63.949 46.147C69.124 41.386 72.022 34.969 72.022 27.31C72.022 13.027 63.121 0.813965 47.389 0.813965C31.657 0.813965 22.756 13.027 22.756 27.31C22.756 34.969 25.654 41.593 30.829 46.147C33.727 48.838 36.211 52.357 36.211 55.876C36.211 59.395 34.762 62.914 26.068 66.64C13.234 72.022 1.021 78.232 0.813995 89.824C0.813995 97.483 6.60999 104.314 13.855 104.314H43.249C45.526 104.314 47.389 102.451 47.389 100.174V86.719C47.596 83.821 49.045 81.13 51.736 79.681Z" fill="black"></path><path d="M119.011 91.8939C99.553 97.8969 84.235 79.4739 62.914 88.1679C61.258 88.7889 60.43 90.2379 60.43 92.1009V114.25C60.43 117.148 62.914 119.011 65.605 118.183C86.719 111.766 102.037 130.189 121.909 121.909C123.358 121.288 124.6 119.839 124.6 117.976V95.8269C124.6 93.1359 121.702 91.0659 119.011 91.8939ZM93.136 112.594C88.582 112.594 84.856 108.868 84.856 104.314C84.856 99.7599 88.582 96.0339 93.136 96.0339C97.69 96.0339 101.416 99.7599 101.416 104.314C101.416 108.868 97.69 112.594 93.136 112.594Z" fill="#FFA421"></path><path d="M84.856 104.314C84.856 108.868 88.582 112.594 93.136 112.594C97.69 112.594 101.416 108.868 101.416 104.314C101.416 99.7599 97.69 96.0339 93.136 96.0339C88.582 96.0339 84.856 99.7599 84.856 104.314Z" fill="#4683AF"></path></svg>