<svg xmlns="http://www.w3.org/2000/svg" width="32" height="32" viewBox="0 0 32 32" fill="none"><path fill-rule="evenodd" clip-rule="evenodd" d="M31.833 16C31.833 8.53609 31.833 4.80414 29.5143 2.48541C27.1955 0.166667 23.4636 0.166667 15.9997 0.166667C8.53584 0.166667 4.80377 0.166667 2.48513 2.48541C0.166343 4.80414 0.166343 8.53609 0.166343 16C0.166343 23.4638 0.166343 27.1959 2.48513 29.5145C4.80377 31.8333 8.53584 31.8333 15.9997 31.8333C23.4636 31.8333 27.1955 31.8333 29.5143 29.5145C31.833 27.1959 31.833 23.4638 31.833 16ZM15.9997 6.89583C15.3439 6.89583 14.8122 7.4275 14.8122 8.08333V16.2997L12.0893 13.577C11.6256 13.1133 10.8738 13.1133 10.41 13.577C9.94628 14.0408 9.94628 14.7925 10.41 15.2563L15.16 20.0063C15.3827 20.2291 15.6848 20.3542 15.9997 20.3542C16.3146 20.3542 16.6167 20.2291 16.8393 20.0063L21.5894 15.2563C22.0531 14.7925 22.0531 14.0408 21.5894 13.577C21.1256 13.1133 20.3737 13.1133 19.91 13.577L17.1872 16.2997V8.08333C17.1872 7.4275 16.6555 6.89583 15.9997 6.89583ZM22.333 22.7292C22.9888 22.7292 23.5205 23.2608 23.5205 23.9167C23.5205 24.5725 22.9888 25.1042 22.333 25.1042H9.66634C9.01053 25.1042 8.47884 24.5725 8.47884 23.9167C8.47884 23.2608 9.01053 22.7292 9.66634 22.7292H22.333Z" fill="white"></path></svg>